<svg width="32" height="32" viewBox="0 0 32 32" fill="none" xmlns="http://www.w3.org/2000/svg">
<rect width="32" height="32" rx="8" fill="#FFF2E2"/>
<path d="M22.1042 13.8906C22.1042 13.8906 21.6517 19.5031 21.3892 21.8673C21.2642 22.9965 20.5667 23.6581 19.4242 23.679C17.25 23.7181 15.0733 23.7206 12.9 23.6748C11.8008 23.6523 11.115 22.9823 10.9925 21.8731C10.7283 19.4881 10.2783 13.8906 10.2783 13.8906" stroke="#130F26" stroke-width="1.5" stroke-linecap="round" stroke-linejoin="round"/>
<path d="M23.2567 11.1999H9.125" stroke="#130F26" stroke-width="1.5" stroke-linecap="round" stroke-linejoin="round"/>
<path d="M20.5335 11.2C19.8793 11.2 19.316 10.7375 19.1877 10.0966L18.9852 9.08331C18.8602 8.61581 18.4368 8.29248 17.9543 8.29248H14.4268C13.9443 8.29248 13.521 8.61581 13.396 9.08331L13.1935 10.0966C13.0652 10.7375 12.5018 11.2 11.8477 11.2" stroke="#130F26" stroke-width="1.5" stroke-linecap="round" stroke-linejoin="round"/>
</svg>
